# xmcd
#
# Track frame offsets:
#	150
#	11882
#	26214
#	38381
#	55007
#	67760
#	87427
#	97161
#	113460
#	121962
#	141596
#	155961
#	167529
#	209354
#	222156
#	241223
#	255543
#	273035
#	287892
#	308544
#	327925
#
# Disc length: 4541 seconds
#
# Revision: 1
# Processed by: cddbd v1.5.1PL0 Copyright (c) Steve Scherf et al.
# Submitted via: EasyCDDAExtractor 6.5.0.1
#
DISCID=2711bb15
DTITLE=Alfredo Zitarrosa and Numa Moraes - Yo se quien soy - Sobre pajaros y alm
DTITLE=as
DYEAR=2005
DGENRE=Folklore
TTITLE0=la cancion del cantor
TTITLE1=doña soledad
TTITLE2=yo se quien soy
TTITLE3=milonga triste
TTITLE4=a jose artigas
TTITLE5=coplas orientales por cifra y milonga
TTITLE6=milonga pajaro
TTITLE7=decimas de jacinto vera
TTITLE8=gato del perro
TTITLE9=yaravi
TTITLE10=que pena
TTITLE11=en blanco y negro
TTITLE12=pajaro rival
TTITLE13=los pajaros dormidos
TTITLE14=pajaro ramon
TTITLE15=pajaro rival
TTITLE16=su alma
TTITLE17=milonga del alma 1
TTITLE18=milonga del alma 2
TTITLE19=milonga del alma 3
TTITLE20=milonga del alma 4
EXTD=
EXTT0=
EXTT1=
EXTT2=
EXTT3=
EXTT4=
EXTT5=
EXTT6=
EXTT7=
EXTT8=
EXTT9=
EXTT10=
EXTT11=
EXTT12=
EXTT13=
EXTT14=
EXTT15=
EXTT16=
EXTT17=
EXTT18=
EXTT19=
EXTT20=
PLAYORDER=
